<svg width="189" height="150" viewBox="0 0 189 150" fill="none" xmlns="http://www.w3.org/2000/svg">
<g id="undraw_warning_re_eoyh 1" clip-path="url(#clip0_1192_14180)">
<path id="Vector" d="M158.572 143.619C159.313 143.665 159.722 142.744 159.162 142.208L159.106 141.986C159.113 141.969 159.12 141.951 159.128 141.933C159.57 140.879 160.787 140.38 161.843 140.817C165.183 142.198 161.657 145.371 161.922 147.518C162.015 148.26 164.918 148.3 164.754 149.028C166.298 145.652 167.109 141.967 167.108 138.261C167.108 137.33 167.056 136.399 166.952 135.47C166.866 134.71 166.747 133.955 166.594 133.207C165.766 129.163 163.974 125.312 161.39 122.095C160.149 121.417 160.906 120.356 160.28 119.084C160.055 118.626 158.05 118.616 157.967 118.113C158.057 118.125 159.353 116.779 158.924 116.113C158.643 115.675 158.73 115.117 159.092 114.743C159.128 114.706 159.161 114.668 159.192 114.626C160.261 113.176 161.735 113.428 162.505 115.398C164.148 116.227 164.165 117.603 163.157 118.926C162.515 119.768 162.428 120.907 161.865 121.808C161.923 121.882 161.983 121.954 162.041 122.028C163.104 123.389 164.023 124.853 164.797 126.391C164.578 124.682 164.9 122.622 165.451 121.295C166.082 119.771 167.269 118.49 168.308 117.172C169.55 115.598 172.078 116.312 172.297 118.305C172.299 118.324 172.301 118.343 172.303 118.362C172.15 118.449 171.999 118.541 171.852 118.639C171.013 119.194 171.304 120.494 172.298 120.647L172.32 120.651C172.265 121.204 170.3 122.948 170.162 123.488C171.49 128.619 170.496 129.297 166.408 129.383L166.194 129.688C166.581 130.802 166.893 131.943 167.127 133.098C167.347 134.17 167.501 135.254 167.587 136.343C167.694 137.716 167.685 139.097 167.57 140.468L167.577 140.419C167.87 138.909 168.69 137.498 169.88 136.52C171.653 135.063 174.159 134.525 176.072 133.354C176.992 132.79 178.173 133.518 178.013 134.586L178.005 134.637C177.72 134.753 177.442 134.887 177.173 135.038C177.019 135.125 176.869 135.217 176.721 135.314C175.883 135.87 176.173 137.17 177.168 137.323L177.19 137.326C177.207 137.328 177.221 137.331 177.237 137.333C176.748 138.494 172.096 140.131 171.244 141.06C170.415 145.542 170.822 145.409 167.008 144.105H167.006C166.589 145.921 165.981 147.695 165.199 149.387L158.736 149.389C158.713 149.317 158.692 149.243 158.671 149.171C159.269 149.208 159.871 149.173 160.459 149.064C159.98 148.476 159.5 147.883 159.02 147.295C159.009 147.283 158.999 147.272 158.99 147.26L158.983 147.251L158.318 145.061C158.37 144.575 158.456 144.093 158.572 143.619Z" fill="#9AE6B4"/>
<path id="Vector_2" d="M90.2802 149.336L33.0959 149.356C30.223 149.357 27.6497 147.872 26.2124 145.385C25.4937 144.141 25.1343 142.777 25.1338 141.412C25.1333 140.047 25.492 138.682 26.2097 137.438L54.7837 85.4208C56.2194 82.9322 58.7917 81.4461 61.6645 81.4451C64.5373 81.4441 67.1107 82.9284 68.5481 85.416L97.1618 137.42C97.8786 138.661 98.2372 140.024 98.2373 141.387C98.2372 142.751 97.8787 144.116 97.1609 145.361C95.7253 147.849 93.153 149.335 90.2802 149.336ZM25.8526 141.411C25.8525 142.653 32.1626 139.976 32.8163 141.108C34.1239 143.371 30.482 148.64 33.0956 148.639C33.0956 148.639 95.2336 147.266 96.5396 145.002C97.1926 143.87 97.5189 142.628 97.5185 141.387C97.518 140.145 97.1909 138.904 96.537 137.772L67.9233 85.7684C66.6194 83.5119 64.2784 82.1614 61.6648 82.1623C59.0524 82.1632 25.8527 140.169 25.8526 141.411Z" fill="#3F3D56"/>
<path id="Vector_3" d="M90.9156 148.619C90.1989 150.053 123.77 149.612 124.167 149.612C124.167 149.612 133.603 149.404 133.801 149.06C133.9 148.888 133.95 148.7 133.95 148.511C133.95 148.323 133.9 148.134 133.801 147.962L129.456 140.065C129.258 139.723 128.902 139.517 128.505 139.518C128.489 139.518 128.464 139.532 128.433 139.56C122.637 144.74 115.493 148.164 107.72 148.28C99.4551 148.403 90.9612 148.527 90.9156 148.619Z" fill="#3F3D56"/>
<path id="Vector_4" d="M2.68431e-08 149.573C8.25093e-05 149.81 0.190226 150 0.426925 150L187.73 149.935C187.967 149.935 188.157 149.745 188.157 149.508C188.157 149.272 187.967 149.082 187.73 149.082L0.426631 149.147C0.189932 149.147 -8.24556e-05 149.337 2.68431e-08 149.573Z" fill="#CCCCCC"/>
<g id="Group">
<path id="Vector_5" d="M144.838 147.502L141.595 147.503L140.047 134.992L144.835 134.991L144.838 147.502Z" fill="#A0616A"/>
<path id="Vector_6" d="M133.725 147.432C133.624 147.602 133.571 148.151 133.571 148.349C133.572 148.957 134.065 149.45 134.673 149.45L144.718 149.446C145.132 149.446 145.469 149.11 145.468 148.695L145.468 148.277C145.468 148.277 145.965 147.02 144.941 145.471C144.941 145.471 143.67 146.684 141.769 144.785L141.209 143.77L137.154 146.738L134.906 147.015C134.414 147.076 133.978 147.006 133.725 147.432Z" fill="#2F2E41"/>
</g>
<g id="Group_2">
<path id="Vector_7" d="M132.402 136.801L129.329 137.841L123.856 126.485L128.391 124.95L132.402 136.801Z" fill="#A0616A"/>
<path id="Vector_8" d="M121.851 140.294C121.81 140.488 121.936 141.025 121.999 141.212C122.194 141.788 122.819 142.097 123.395 141.902L132.91 138.682C133.303 138.549 133.513 138.123 133.38 137.73L133.246 137.334C133.246 137.334 133.314 135.984 131.848 134.844C131.848 134.844 131.033 136.401 128.624 135.21L127.768 134.428L124.877 138.538L122.836 139.521C122.39 139.736 121.954 139.81 121.851 140.294Z" fill="#2F2E41"/>
</g>
<path id="Vector_9" d="M127.391 64.2252L121.1 85.0612L113.672 103.803L125.431 130.568L129.791 128.629L124.574 104.042L135.515 87.3577L140.62 139.441L144.98 139.197L150.894 76.3298L151.737 62.6421L127.391 64.2252Z" fill="#2F2E41"/>
<path id="Vector_10" d="M146.392 18.0691L137.187 19.7681L136.461 23.8866L130.89 26.5534L127.994 56.8362C127.994 56.8362 123.151 63.1365 127.028 65.0732L151.737 62.6421C151.737 62.6421 152.947 58.1628 151.735 57.7378C150.524 57.3129 150.52 46.6136 150.52 46.6136L156.084 24.6066L147.847 21.7024L146.392 18.0691Z" fill="#E6E6E6"/>
<path id="Vector_11" d="M140.963 17.9897C145.068 17.9897 148.396 14.6617 148.396 10.5564C148.396 6.45106 145.068 3.12305 140.963 3.12305C136.857 3.12305 133.529 6.45106 133.529 10.5564C133.529 14.6617 136.857 17.9897 140.963 17.9897Z" fill="#A0616A"/>
<path id="Vector_12" d="M145.885 11.6595C145.292 11.9843 145.855 13.5346 145.484 13.6687C145.055 13.8236 143.493 12.0451 143.474 10.0532C143.468 9.45026 143.606 9.16077 143.473 8.44595C143.298 7.51092 142.763 6.40809 142.267 6.43737C141.973 6.45472 141.686 6.8703 141.665 7.24117C141.634 7.76096 142.139 7.96555 142.067 8.24554C141.928 8.77884 139.808 9.14703 139.053 8.24658C138.461 7.54064 138.915 6.30118 138.651 6.23771C138.456 6.19093 138.246 6.87334 137.446 7.64443C137.144 7.93495 136.696 8.36702 136.441 8.24749C136.074 8.07475 136.341 6.85739 136.24 6.84125C136.156 6.82788 136.104 7.68354 135.638 8.44866C135.039 9.43165 133.804 10.1893 133.228 9.8558C132.874 9.65147 132.847 9.0826 132.825 8.65054C132.781 7.74031 131.458 5.64659 131.8 4.67286C132.497 2.69102 133.69 4.08803 134.23 3.42664C134.961 2.53128 135.616 3.01267 136.841 2.01944C138.038 1.04914 138.048 0.0739121 138.849 0.00973365C139.571 -0.0480614 139.828 0.721693 140.658 0.611809C141.361 0.518722 141.514 -0.0783038 142.064 0.00861835C142.567 0.0881959 142.6 0.614143 143.269 0.811803C143.697 0.937994 143.79 0.755346 144.274 0.811455C145.28 0.928208 145.956 1.84458 146.082 2.01623C146.571 2.67798 146.381 2.95704 146.887 3.62316C147.323 4.19759 148.289 3.95366 148.652 4.24056C149.839 5.17802 150.348 6.90688 150.359 8.87737C150.366 10.2556 150.186 10.9519 149.785 12.6915C149.481 14.0125 148.07 15.7195 147.293 16.4806C147.084 16.685 146.499 17.2578 146.088 17.0838C145.698 16.9189 145.686 16.1773 145.686 16.0794C145.684 15.7427 145.773 15.326 146.489 14.271C147.24 13.1629 147.538 13.0364 147.492 12.6635C147.412 12.0043 146.358 11.4007 145.885 11.6595Z" fill="#2F2E41"/>
<g id="Group_3">
<path id="Vector_13" d="M119.956 80.9617C119.725 82.8992 120.536 84.5892 121.769 84.7364C123.002 84.8836 124.189 83.4323 124.421 81.4948C124.522 80.6467 124.423 79.8461 124.177 79.2014L125.054 70.9794L121.187 70.6499L120.733 78.7902C120.342 79.3587 120.057 80.1136 119.956 80.9617Z" fill="#A0616A"/>
<path id="Vector_14" d="M131.072 26.3577C131.072 26.3577 129.068 26.3862 127.742 28.977C127.037 30.3537 123.266 56.0985 123.266 56.0985L119.792 77.1883L125.709 77.2182L130.321 57.2456L134.2 45.6619L131.072 26.3577Z" fill="#E6E6E6"/>
</g>
<path id="Vector_15" d="M147.726 77.8671C147.159 79.7342 147.663 81.5402 148.851 81.9008C150.039 82.2614 151.462 81.0402 152.029 79.173C152.277 78.3557 152.32 77.5501 152.19 76.8724L154.492 68.9306L150.742 67.9297L148.871 75.865C148.386 76.3563 147.974 77.0498 147.726 77.8671Z" fill="#A0616A"/>
<path id="Vector_16" d="M151.845 24.9714C151.845 24.9714 154.751 22.7901 157.175 26.1808C159.599 29.5715 160.577 57.4304 160.577 57.4304L153.8 74.6328L148.712 72.9388L153.55 51.861L145.065 35.8752L151.845 24.9714Z" fill="#E6E6E6"/>
<g id="Group_4">
<path id="Vector_17" d="M78.3511 137.864C92.8094 137.864 104.53 126.144 104.53 111.685C104.53 97.2269 92.8094 85.5061 78.3511 85.5061C63.8927 85.5061 52.1719 97.2269 52.1719 111.685C52.1719 126.144 63.8927 137.864 78.3511 137.864Z" fill="#F56565"/>
<g id="Group_5">
<path id="Vector_18" d="M78.3558 127.734C79.6834 127.734 80.7595 126.657 80.7595 125.33C80.7595 124.002 79.6834 122.926 78.3558 122.926C77.0283 122.926 75.9521 124.002 75.9521 125.33C75.9521 126.657 77.0283 127.734 78.3558 127.734Z" fill="white"/>
<path id="Vector_19" d="M78.3456 95.6372C78.1248 97.1044 78.5204 97.4114 78.5226 103.737C78.5248 110.062 79.8372 118.543 78.3535 118.543C76.8698 118.544 76.3272 101.041 71.1751 99.4924C65.1177 97.6712 79.0604 90.8877 78.3456 95.6372Z" fill="white"/>
</g>
</g>
<path id="Vector_20" d="M43.2149 125.051L40.8497 130.049C43.709 127.998 48.1752 126.231 51.7293 125.284C48.4178 123.685 44.3657 121.106 41.9449 118.552L43.3053 123.833C27.3561 120.584 15.9027 108.349 15.8979 94.333L15.3218 94.1348C15.3268 108.775 26.6218 121.735 43.2149 125.051Z" fill="#3F3D56"/>
</g>
<defs>
<clipPath id="clip0_1192_14180">
<rect width="188.157" height="150" fill="white"/>
</clipPath>
</defs>
</svg>
